<?xml version="1.0" encoding="UTF-8"?>
<svg version="1.1" xmlns="http://www.w3.org/2000/svg" width="1007" height="601">
<path d="M0 0 C332.31 0 664.62 0 1007 0 C1007 198.33 1007 396.66 1007 601 C674.69 601 342.38 601 0 601 C0 402.67 0 204.34 0 0 Z " fill="#FEFEFE" transform="translate(0,0)"/>
<path d="M0 0 C0.73427719 -0.0033284 1.46855438 -0.0066568 2.2250824 -0.01008606 C3.78619764 -0.01516197 5.34732378 -0.01749418 6.90844727 -0.01733398 C9.27443991 -0.01949998 11.63995062 -0.03759064 14.00585938 -0.05664062 C15.524738 -0.05957869 17.04361883 -0.06156072 18.5625 -0.0625 C19.26178116 -0.06968552 19.96106232 -0.07687103 20.68153381 -0.08427429 C29.17734786 -0.04565782 37.7845445 2.00026738 44.40625 7.5625 C54.72424748 18.40827229 55.1215656 32.65766294 54.9609375 46.6796875 C54.64052277 58.4036823 51.53936899 67.65936478 43.18359375 75.98046875 C34.17368878 83.16675846 22.33040565 82.59912907 11.36938477 82.44921875 C9.0240928 82.41750218 6.67947154 82.40818011 4.33398438 82.40234375 C2.84243961 82.39319323 1.35090171 82.38282378 -0.140625 82.37109375 C-0.84152756 82.36684387 -1.54243011 82.36259399 -2.26457214 82.35821533 C-7.136581 82.285294 -7.136581 82.285294 -8.25390625 81.16796875 C-8.35424491 78.67843178 -8.39008568 76.21661922 -8.38330078 73.7265625 C-8.3850531 72.94773712 -8.38680542 72.16891174 -8.38861084 71.3664856 C-8.39302974 68.77945764 -8.39009124 66.19249746 -8.38671875 63.60546875 C-8.38739178 61.81567369 -8.38836179 60.02587873 -8.38961792 58.23608398 C-8.39109494 54.47997164 -8.38894019 50.72388303 -8.38427734 46.96777344 C-8.37858005 42.14196382 -8.38185903 37.3162098 -8.38784981 32.49040222 C-8.3914553 28.79308652 -8.39031689 25.09578411 -8.38772202 21.39846802 C-8.38705271 19.61858107 -8.38788128 17.83869293 -8.39020157 16.05880737 C-8.3927279 13.57563053 -8.38888779 11.09254501 -8.38330078 8.609375 C-8.38532501 7.86648224 -8.38734924 7.12358948 -8.38943481 6.35818481 C-8.35960348 -0.7622351 -6.44895693 0.01005893 0 0 Z " fill="#122E3C" transform="translate(621.25390625,333.83203125)"/>
<path d="M0 0 C7.38989059 5.93168475 12.33554441 14.83989534 14.21875 24.140625 C15.95470423 40.15620277 14.37484745 56.66962772 4.16015625 69.5859375 C-1.3542364 75.39189574 -8.24599534 77.97586078 -16.15234375 78.7109375 C-27.42733953 78.82999765 -35.48902224 77.19250311 -43.7890625 69.27734375 C-52.56357578 59.73897775 -53.78790457 48.72080641 -53.8515625 36.1875 C-53.85712158 35.26114746 -53.86268066 34.33479492 -53.8684082 33.38037109 C-53.75887915 22.8899222 -51.71560445 14.0378618 -45.5390625 5.375 C-42.74859754 2.67296527 -39.7937317 0.48450782 -36.5390625 -1.625 C-35.6109375 -2.24375 -34.6828125 -2.8625 -33.7265625 -3.5 C-23.43066293 -8.79503407 -9.35406446 -5.98660125 0 0 Z " fill="#112D3B" transform="translate(315.5390625,338.625)"/>
<path d="M0 0 C2.72943537 -0.05416741 5.45778564 -0.09375225 8.1875 -0.125 C9.34088867 -0.15013672 9.34088867 -0.15013672 10.51757812 -0.17578125 C19.02159545 -0.24877711 19.02159545 -0.24877711 22 2 C23.43529213 5.20547217 24.20061004 8.52625323 25 11.9375 C25.5038907 13.94271224 26.00779723 15.9479205 26.51171875 17.953125 C26.75841309 18.96568359 27.00510742 19.97824219 27.25927734 21.02148438 C27.94877843 23.79403322 28.68784104 26.54552074 29.45703125 29.296875 C31.7448741 37.51278722 33.7877268 45.41258427 34 54 C34.66 54 35.32 54 36 54 C35.95488281 53.03707031 35.90976563 52.07414062 35.86328125 51.08203125 C35.86912781 46.41998419 36.99718097 42.17068468 38.1875 37.6875 C38.41163574 36.81955811 38.63577148 35.95161621 38.86669922 35.05737305 C39.56610865 32.3683317 40.28013316 29.68363208 41 27 C41.33620361 25.74364746 41.33620361 25.74364746 41.67919922 24.46191406 C42.32123886 22.07692422 42.97046173 19.69408823 43.625 17.3125 C43.81860107 16.60762451 44.01220215 15.90274902 44.21166992 15.17651367 C45.64786877 10.04445596 47.30955171 5.07134488 49 0 C55.6 0 62.2 0 69 0 C70.44799037 5.06796631 71.31305544 8.73249964 71.68603516 13.81811523 C71.78598785 15.13315536 71.88594055 16.4481955 71.98892212 17.80308533 C72.08921114 19.22157103 72.18925184 20.64007431 72.2890625 22.05859375 C72.39774696 23.53162191 72.50699941 25.00460825 72.61679077 26.47755432 C72.84474343 29.55609695 73.06785175 32.63493742 73.28710938 35.71411133 C73.56695871 39.64277717 73.85577943 43.57071547 74.1478672 47.49848843 C74.3734212 50.53792896 74.59574742 53.57759842 74.81696701 56.61735725 C74.9224001 58.06494724 75.02844983 59.51249247 75.13515091 60.95998955 C75.64974443 67.97862123 76.14765443 74.95823646 76 82 C71.05 82 66.1 82 61 82 C60.31569184 77.89415104 59.82117911 74.19698259 59.61108398 70.08642578 C59.5211039 68.37533127 59.5211039 68.37533127 59.42930603 66.62966919 C59.36884598 65.41383148 59.30838593 64.19799377 59.24609375 62.9453125 C59.18092056 61.68862762 59.11574738 60.43194275 59.04859924 59.13717651 C58.87682755 55.81322567 58.70801285 52.48915184 58.54064941 49.16497803 C58.36878895 45.7661068 58.19301442 42.3674382 58.01757812 38.96875 C57.67479237 32.31268016 57.33590602 25.65642039 57 19 C56.83264343 19.6776088 56.66528687 20.35521759 56.49285889 21.05335999 C55.72120432 24.17279236 54.94655828 27.29147471 54.171875 30.41015625 C53.90874512 31.47576782 53.64561523 32.54137939 53.37451172 33.63928223 C51.63083649 40.64751536 49.72323132 47.58165109 47.62677002 54.49169922 C46.52577916 58.13962711 45.54325223 61.77288106 44.75 65.5 C44 69 44 69 43 70 C40.30345146 70.07319621 37.63308542 70.09242537 34.9375 70.0625 C34.17888672 70.05798828 33.42027344 70.05347656 32.63867188 70.04882812 C30.75908129 70.0370068 28.87953101 70.01907078 27 70 C25.59810335 66.664942 24.51780035 63.40946095 23.66796875 59.89453125 C23.42908936 58.9190332 23.19020996 57.94353516 22.9440918 56.93847656 C22.56957886 55.39111816 22.56957886 55.39111816 22.1875 53.8125 C19.93867011 44.65590424 17.5505014 35.55565039 14.98046875 26.484375 C14.27976045 23.99420844 13.61802493 21.51061879 13 19 C12.97494385 19.74048584 12.9498877 20.48097168 12.92407227 21.24389648 C12.8070828 24.64189649 12.68482853 28.03968817 12.5625 31.4375 C12.52318359 32.60216797 12.48386719 33.76683594 12.44335938 34.96679688 C12.23677264 40.60820385 11.92512202 46.17022975 11.23413086 51.7722168 C10.66492861 57.18824448 10.59207422 62.65204872 10.39453125 68.09179688 C10.35714844 69.02443359 10.31976563 69.95707031 10.28125 70.91796875 C10.23581055 72.16743286 10.23581055 72.16743286 10.18945312 73.44213867 C9.97671975 76.31431342 9.47347603 79.15914384 9 82 C4.05 82 -0.9 82 -6 82 C-5.37919041 66.88614539 -4.40461283 51.81260059 -3.27050781 36.72900391 C-2.99672263 33.08133531 -2.72857368 29.43328065 -2.4609375 25.78515625 C-2.28678876 23.44268374 -2.11232155 21.10023489 -1.9375 18.7578125 C-1.81870483 17.13904709 -1.81870483 17.13904709 -1.69750977 15.48757935 C-1.30324966 10.2868521 -0.82228902 5.15113131 0 0 Z " fill="#142F3E" transform="translate(173,334)"/>
<path d="M0 0 C0.74958984 0.00451172 1.49917969 0.00902344 2.27148438 0.01367188 C4.11852383 0.02543646 5.96552213 0.04337135 7.8125 0.0625 C17.52798023 19.89734239 26.82297387 39.88871501 35.8125 60.0625 C35.80583817 59.39708694 35.79917633 58.73167389 35.79231262 58.0460968 C35.72593321 51.11940341 35.68068837 44.1928004 35.64770508 37.26586914 C35.63262038 34.68087087 35.61214998 32.09589818 35.58618164 29.51098633 C35.54978558 25.7950204 35.53277015 22.07939293 35.51953125 18.36328125 C35.50404739 17.20790359 35.48856354 16.05252594 35.47261047 14.86213684 C35.47238388 13.78139389 35.47215729 12.70065094 35.47192383 11.5871582 C35.46526199 10.63895706 35.45860016 9.69075592 35.45173645 8.71382141 C35.88486411 5.53068212 36.94029185 3.65091448 38.8125 1.0625 C40.8125 0.0625 40.8125 0.0625 50.8125 0.0625 C50.8125 26.7925 50.8125 53.5225 50.8125 81.0625 C46.77673344 82.07144164 43.17543071 82.17553696 39.0625 82.125 C38.36511719 82.12048828 37.66773438 82.11597656 36.94921875 82.11132812 C35.23694197 82.0996002 33.52470967 82.08166653 31.8125 82.0625 C16.32127188 50.36115258 16.32127188 50.36115258 9.375 35.1875 C8.9214917 34.1975 8.4679834 33.2075 8.00073242 32.1875 C4.9536466 25.48593979 4.9536466 25.48593979 3.8125 22.0625 C3.8125 41.8625 3.8125 61.6625 3.8125 82.0625 C-1.1375 82.0625 -6.0875 82.0625 -11.1875 82.0625 C-11.1875 55.3325 -11.1875 28.6025 -11.1875 1.0625 C-7.42449626 -0.19183458 -3.91539091 -0.04445422 0 0 Z " fill="#132F3D" transform="translate(510.1875,333.9375)"/>
<path d="M0 0 C0.74886475 0.00523682 1.49772949 0.01047363 2.26928711 0.01586914 C3.07817383 0.0190918 3.88706055 0.02231445 4.72045898 0.02563477 C5.5705957 0.03401367 6.42073242 0.04239258 7.29663086 0.05102539 C8.15063477 0.05553711 9.00463867 0.06004883 9.88452148 0.06469727 C12.00108749 0.07652166 14.11761771 0.0944577 16.23413086 0.11352539 C19.95161755 11.20009056 23.64932554 22.29315079 27.33099365 33.3916626 C27.93788282 35.22069701 28.54518909 37.04959308 29.15289307 38.87835693 C30.98110527 44.38083799 32.80110795 49.88591668 34.61001587 55.39477539 C35.19138095 57.16142053 35.77533391 58.92721621 36.36190796 60.69213867 C37.18573405 63.17279567 38.00010705 65.65636866 38.81225586 68.14086914 C39.0585524 68.87583115 39.30484894 69.61079315 39.55860901 70.36802673 C40.75169978 74.05286073 41.52769797 77.23133711 41.23413086 81.11352539 C37.2640299 83.09857587 32.55277354 82.6397196 28.23413086 82.11352539 C23.20917416 78.50586417 21.83779178 70.88841071 20.23413086 65.11352539 C20.23413086 64.45352539 20.23413086 63.79352539 20.23413086 63.11352539 C10.99413086 63.44352539 1.75413086 63.77352539 -7.76586914 64.11352539 C-9.36822615 69.28847766 -9.36822615 69.28847766 -10.96679688 74.46459961 C-12.65475803 79.89130317 -12.65475803 79.89130317 -13.76586914 82.11352539 C-18.38586914 82.11352539 -23.00586914 82.11352539 -27.76586914 82.11352539 C-29.0819554 78.1652666 -28.13914673 76.50831563 -26.81567383 72.58178711 C-26.59630661 71.9228093 -26.37693939 71.26383148 -26.15092468 70.58488464 C-25.42169271 68.40137615 -24.67978127 66.22239961 -23.93774414 64.04321289 C-23.42704955 62.5223281 -22.91715294 61.00117514 -22.40802002 59.47976685 C-21.0624283 55.46592625 -19.70608326 51.45579981 -18.34747314 47.4463501 C-16.97664826 43.39484572 -15.61576331 39.34000793 -14.25415039 35.28540039 C-12.03211308 28.67228406 -9.80553585 22.06072406 -7.56669235 15.45327568 C-6.35380265 11.87046904 -5.16565419 8.28059991 -3.9934082 4.68432617 C-2.4369286 0.15666692 -2.4369286 0.15666692 0 0 Z " fill="#122E3C" transform="translate(445.765869140625,333.886474609375)"/>
<path d="M0 0 C4.95 0 9.9 0 15 0 C16 1 16 1 16.11352539 4.05102539 C16.11336634 5.39991271 16.10767612 6.74880614 16.09765625 8.09765625 C16.0962413 8.80651474 16.09482635 9.51537323 16.09336853 10.24571228 C16.08775443 12.51801712 16.07519963 14.79022475 16.0625 17.0625 C16.05748681 18.59960796 16.05292359 20.13671745 16.04882812 21.67382812 C16.0386297 25.44928667 16.01905732 29.22453404 16 33 C25.57 33 35.14 33 45 33 C45 22.11 45 11.22 45 0 C49.95 0 54.9 0 60 0 C61.73141493 1.73141493 61.11977579 3.95750044 61.12442017 6.26478577 C61.11902725 7.39550758 61.11902725 7.39550758 61.11352539 8.54907227 C61.11367142 9.33925751 61.11381744 10.12944275 61.1139679 10.943573 C61.11326857 13.56787822 61.10547527 16.19211336 61.09765625 18.81640625 C61.09579214 20.63101665 61.0943682 22.44562756 61.09336853 24.26023865 C61.08954279 29.0459023 61.07971204 33.8315358 61.06866455 38.6171875 C61.05845163 43.49674064 61.05387117 48.37629864 61.04882812 53.25585938 C61.03808981 62.83725499 61.02049257 72.41862028 61 82 C55.72 82 50.44 82 45 82 C45 70.45 45 58.9 45 47 C35.43 47 25.86 47 16 47 C16 58.55 16 70.1 16 82 C10.72 82 5.44 82 0 82 C0 54.94 0 27.88 0 0 Z " fill="#15303F" transform="translate(345,334)"/>
<path d="M0 0 C16.83 0 33.66 0 51 0 C51 10 51 10 50 13 C38.78 13 27.56 13 16 13 C16 19.6 16 26.2 16 33 C25.24 33 34.48 33 44 33 C44 37.29 44 41.58 44 46 C34.76 46 25.52 46 16 46 C16 52.93 16 59.86 16 67 C28.21 67 40.42 67 53 67 C53 75.25 53 75.25 50 79 C47.21693876 80.67907468 45.09398605 81.25959947 41.86157227 81.32226562 C41.05716202 81.34148071 40.25275177 81.3606958 39.42396545 81.38049316 C38.13322365 81.3932428 38.13322365 81.3932428 36.81640625 81.40625 C35.92388657 81.41765015 35.03136688 81.42905029 34.11180115 81.4407959 C32.22651896 81.459662 30.34117133 81.47275043 28.45581055 81.48046875 C25.57549144 81.4999123 22.69801055 81.56198686 19.81835938 81.625 C17.98439191 81.63805849 16.15040409 81.64856006 14.31640625 81.65625 C13.45793594 81.6809436 12.59946564 81.70563721 11.71498108 81.7310791 C10.50363747 81.72207581 10.50363747 81.72207581 9.26782227 81.71289062 C8.56262955 81.72018188 7.85743683 81.72747314 7.13087463 81.73498535 C3.67467272 80.54286558 1.74173033 78.09029927 0 75 C-0.60127258 71.43118286 -0.60127258 71.43118286 -0.56762695 67.43408203 C-0.56835709 66.70168808 -0.56908722 65.96929413 -0.56983948 65.21470642 C-0.56637641 62.81163546 -0.52758085 60.41054164 -0.48828125 58.0078125 C-0.47894845 56.33488015 -0.47183454 54.66193408 -0.46684265 52.98898315 C-0.44780934 48.59922133 -0.39874111 44.21029497 -0.34332275 39.82086182 C-0.28302608 34.54711165 -0.26019648 29.27308114 -0.23105621 23.99908447 C-0.18267284 15.99880971 -0.08683465 8.00036579 0 0 Z " fill="#132F3D" transform="translate(691,335)"/>
<path d="M0 0 C1.875 1.125 1.875 1.125 3 3 C3.42478586 7.07794425 3.31282587 8.53076119 1 12 C0.34 12 -0.32 12 -1 12 C-1 12.66 -1 13.32 -1 14 C-1.66 14 -2.32 14 -3 14 C-3 14.66 -3 15.32 -3 16 C-4.609375 17.55078125 -4.609375 17.55078125 -6.75 19.3125 C-9.91761349 21.98762235 -12.43092965 24.73925686 -15 28 C-15.66 28 -16.32 28 -17 28 C-17 28.66 -17 29.32 -17 30 C-17.66 30 -18.32 30 -19 30 C-19 30.66 -19 31.32 -19 32 C-20.43359375 33.375 -20.43359375 33.375 -22.4375 35 C-25.58278551 37.65763605 -28.35593086 40.42258916 -31.0625 43.5234375 C-36.34147827 49.45418854 -41.92629446 55.03793394 -47.5625 60.625 C-48.58161754 61.63908446 -49.60049899 62.65340625 -50.61914062 63.66796875 C-53.07672412 66.11470835 -55.53744246 68.55826544 -58 71 C-52.91855548 77.20524679 -47.29655145 82.82086529 -41.61136627 88.46379852 C-39.86045616 90.2018218 -38.11279737 91.94305793 -36.36590576 93.68511963 C-32.66342065 97.37624736 -28.95699457 101.06340187 -25.25 104.75 C-20.93810078 109.03827238 -16.62784628 113.32817173 -12.32176971 117.62229156 C-10.60100832 119.33657779 -8.87726169 121.04782321 -7.15338135 122.75897217 C-6.10113039 123.80759149 -5.04901908 124.85635096 -3.99707031 125.90527344 C-3.07806946 126.81903748 -2.1590686 127.73280151 -1.21221924 128.67425537 C1.42859804 131.45059258 2.89371211 133.14969686 3.375 137 C3 140 3 140 1.4375 141.9375 C-2.12498327 143.49037732 -4.24565043 142.92480858 -8 142 C-10.39820551 140.15415555 -12.32965041 138.44335649 -14.40673828 136.2902832 C-15.00445038 135.69505356 -15.60216248 135.09982391 -16.21798706 134.48655701 C-18.18345492 132.52200479 -20.12672578 130.53696414 -22.0703125 128.55078125 C-23.43714088 127.17529151 -24.80523354 125.80105705 -26.17453003 124.42802429 C-29.77330523 120.8120345 -33.35328918 117.17796675 -36.93005371 113.54022217 C-39.84468802 110.58206529 -42.7722462 107.63689219 -45.70063972 104.69236469 C-49.20311818 101.17021689 -52.7001517 97.64268942 -56.1953125 94.11328125 C-56.85790195 93.444266 -57.52049141 92.77525074 -58.20315933 92.0859623 C-60.08898918 90.17900511 -61.97117628 88.26853305 -63.85205078 86.35668945 C-64.40282288 85.80008636 -64.95359497 85.24348328 -65.52105713 84.67001343 C-66.54452589 83.62671308 -67.55947358 82.57496286 -68.56436539 81.51375771 C-69.53071472 80.49482243 -70.5190202 79.49631871 -71.52679062 78.51833153 C-74.11988788 75.81900822 -74.98159721 74.3232556 -75.1962738 70.55233765 C-73.64172709 65.93610781 -71.3129697 63.50279646 -67.85961914 60.16259766 C-67.21895004 59.51944611 -66.57828094 58.87629456 -65.91819763 58.21365356 C-63.80457995 56.09912026 -61.670422 54.00671469 -59.53515625 51.9140625 C-58.06040497 50.44796818 -56.58690582 48.98061336 -55.11460876 47.51205444 C-51.24063502 43.65529353 -47.34854605 39.81731372 -43.45281982 35.98254395 C-40.26909034 32.84246951 -37.09846401 29.68934666 -33.92844486 26.53544044 C-30.15577625 22.78234806 -26.37764025 19.03478566 -22.59765625 15.2890625 C-21.87369219 14.57152424 -21.14972813 13.85398598 -20.40382576 13.11470413 C-18.36204787 11.09384354 -16.31664748 9.07673432 -14.26977539 7.06103516 C-13.66138824 6.458479 -13.0530011 5.85592285 -12.42617798 5.23510742 C-8.09614876 0.98322202 -6.15599732 -0.50253039 0 0 Z " fill="#A85FCA" transform="translate(437,135)"/>
<path d="M0 0 C1.9375 1.5 1.9375 1.5 3 4 C2.6873837 10.94222099 0.39505716 16.43223271 -2.42578125 22.72265625 C-2.88019089 23.75917328 -3.33460052 24.79569031 -3.80278015 25.86361694 C-4.78382404 28.09848333 -5.76956766 30.33129139 -6.75952148 32.56222534 C-9.14726264 37.94398031 -11.50642912 43.33822256 -13.8692894 48.73093605 C-14.67913122 50.57795281 -15.49029536 52.42438381 -16.30178833 54.27067566 C-21.28898752 65.62260668 -26.16162988 77.02149413 -31 88.4375 C-31.80192111 90.32758964 -32.60392346 92.21764482 -33.40600586 94.10766602 C-34.63263543 96.99827681 -35.85913175 99.88894348 -37.08503723 102.77986145 C-40.16630173 110.04377781 -43.25981293 117.30241772 -46.35814667 124.55906868 C-47.14636437 126.40530038 -47.93434098 128.25163479 -48.722229 130.0980072 C-52.99903758 140.12041847 -52.99903758 140.12041847 -54.86328125 144.48190308 C-56.27238549 147.77894232 -57.67965778 151.07675513 -59.0859375 154.375 C-59.52379578 155.40049454 -59.96165405 156.42598907 -60.41278076 157.4825592 C-63.34198204 164.37096917 -66.13020854 171.29965397 -68.76806641 178.3046875 C-69.93952894 180.8676971 -70.73860784 182.34763463 -73 184 C-78.90954774 184.63316583 -78.90954774 184.63316583 -81.9375 182.875 C-83.56205349 180.0081409 -83.32029275 178.32067887 -83 175 C-81.75040454 171.2537139 -80.1542361 167.67257792 -78.55859375 164.0625 C-78.08877579 162.97565918 -77.61895782 161.88881836 -77.13490295 160.76904297 C-75.84824294 157.79716433 -74.55221822 154.82958255 -73.25234985 151.86346436 C-71.87602775 148.71597998 -70.51251796 145.5629607 -69.1484375 142.41015625 C-67.45323267 138.49360971 -65.75728008 134.5774012 -64.05636597 130.66333008 C-58.94447865 118.89833564 -53.91181024 107.10033961 -48.89859009 95.29296875 C-46.55587832 89.77707334 -44.20771206 84.26350236 -41.859375 78.75 C-41.38989944 77.64769043 -40.92042389 76.54538086 -40.4367218 75.40966797 C-35.08904418 62.85684308 -29.72988334 50.30894123 -24.36108398 37.76513672 C-23.29531688 35.27492895 -22.23040159 32.78435976 -21.16625977 30.29345703 C-19.69075367 26.84070257 -18.2128898 23.38896696 -16.734375 19.9375 C-16.29796692 18.9151123 -15.86155884 17.89272461 -15.41192627 16.83935547 C-7.70545878 -1.12371274 -7.70545878 -1.12371274 0 0 Z " fill="#A75CC9" transform="translate(532,112)"/>
<path d="M0 0 C5.22916688 0.69796965 7.26348661 2.97548857 10.85166931 6.65615845 C11.84806679 7.63656601 11.84806679 7.63656601 12.86459351 8.63677979 C15.05198669 10.79849548 17.21292753 12.98464951 19.37339783 15.17324829 C20.88687461 16.68454907 22.40146314 18.19473725 23.91711426 19.70385742 C27.0879793 22.86891697 30.2461034 26.04602493 33.39561462 29.23233032 C37.4346431 33.31685551 41.50205274 37.37165816 45.57919216 41.41810036 C48.71035081 44.53146924 51.82684486 47.65918818 54.93899727 50.79154587 C56.43346401 52.29253206 57.93227015 53.78921049 59.43543816 55.2814827 C61.53317146 57.36869301 63.61059882 59.47420667 65.68370056 61.58584595 C66.30855347 62.20012451 66.93340637 62.81440308 67.57719421 63.44729614 C70.16957097 66.1243753 71.64461432 67.85004521 72.58792114 71.50344849 C71.43741331 75.97641186 68.81945859 78.34285853 65.57603455 81.52432251 C64.91267593 82.19819504 64.24931732 82.87206757 63.56585693 83.56636047 C61.36942426 85.78919612 59.15177135 87.98937015 56.93199158 90.18887329 C55.39848842 91.72641787 53.8658769 93.26485221 52.3341217 94.80413818 C49.12055677 98.02655018 45.89638619 101.23785687 42.66441345 104.44180298 C38.52108903 108.55094307 34.40528322 112.68643101 30.29704094 116.83061028 C27.13715604 120.01216959 23.96312751 123.1793074 20.78462601 126.34225845 C19.26116925 127.86171082 17.74216226 129.38563813 16.22770309 130.91405869 C14.10929002 133.0476993 11.97261206 135.16117545 9.8299408 137.27041626 C9.20631149 137.90619095 8.58268219 138.54196564 7.94015503 139.19700623 C3.6145007 143.39836971 3.6145007 143.39836971 -0.50645447 143.96942139 C-3.18519592 143.50918579 -3.18519592 143.50918579 -5.06019592 142.38418579 C-6.84471841 139.40998164 -6.83365592 137.94602377 -6.18519592 134.50918579 C-0.80118884 126.89415151 6.7105489 120.48542706 13.31089783 113.91543579 C14.51180611 112.71639625 15.71249108 111.51713302 16.91296387 110.31765747 C20.04902693 107.18538372 23.18808297 104.05612669 26.32780457 100.92752075 C29.54080409 97.7248131 32.75091879 94.51921671 35.96128845 91.31387329 C42.24299779 85.0428379 48.52787765 78.77499056 54.81480408 72.50918579 C53.20906005 68.50178882 50.39249644 65.82520083 47.37120056 62.85440063 C46.81656128 62.30107559 46.261922 61.74775055 45.69047546 61.17765808 C43.86017312 59.35383536 42.02300363 57.53709054 40.18589783 55.72012329 C38.91269041 54.45318715 37.63999735 53.18573389 36.36779785 51.91778564 C33.02032979 48.58361314 29.66733856 45.25505542 26.31272888 41.92807007 C20.93832768 36.5968131 15.57065831 31.25879891 10.20617867 25.91756058 C8.32892962 24.05055668 6.44831696 22.18698997 4.56735229 20.32373047 C3.42112516 19.18432901 2.27500613 18.04481877 1.12901306 16.90518188 C0.60275833 16.38566452 0.0765036 15.86614716 -0.46569824 15.33088684 C-5.1219715 10.68937501 -5.1219715 10.68937501 -5.37269592 6.00918579 C-5.12696787 1.42226221 -4.51846417 0.72232221 0 0 Z " fill="#A65BC8" transform="translate(550.1851959228516,134.49081420898438)"/>
<path d="M0 0 C1.12535156 -0.05994141 1.12535156 -0.05994141 2.2734375 -0.12109375 C5.87308533 0.7339721 7.31740691 2.6064959 9.625 5.4375 C10.9609375 8.546875 10.9609375 8.546875 12 12.1875 C12.197146 12.86506348 12.39429199 13.54262695 12.59741211 14.24072266 C13.03957551 15.77254513 13.4735732 17.3067401 13.90087891 18.84277344 C14.69982941 21.70563453 15.52703134 24.55959964 16.35546875 27.4140625 C19.57388194 38.60183876 22.52317715 49.78614229 24.8984375 61.18359375 C25.45771062 64.30421225 25.45771062 64.30421225 26.625 66.4375 C30.8377075 50.90133082 34.99779571 35.36948744 38.63330078 19.68579102 C42.6733768 2.3891232 42.6733768 2.3891232 44.625 0.4375 C46.41440972 0.33841217 48.20785508 0.30779621 50 0.3125 C51.46566406 0.30863281 51.46566406 0.30863281 52.9609375 0.3046875 C55.625 0.4375 55.625 0.4375 58.625 1.4375 C57.24622488 8.86768008 55.47675057 16.14523932 53.5 23.4375 C53.19723145 24.55962891 52.89446289 25.68175781 52.58251953 26.83789062 C50.07540492 36.01743315 47.32370336 45.11048139 44.48168945 54.19116211 C42.19432193 61.51309919 40.05318481 68.85963745 38.08349609 76.2734375 C36.72402171 81.33847829 36.72402171 81.33847829 35.625 82.4375 C32.68985685 82.67219262 29.81453595 82.80860861 26.875 82.875 C26.06289063 82.92076172 25.25078125 82.96652344 24.4140625 83.01367188 C20.08577566 83.09473914 18.21561104 82.91385114 14.7578125 80.125 C11.66607415 75.60113758 10.569139 70.2444504 9.25 65 C8.65211607 62.74546219 8.05180077 60.49156793 7.44921875 58.23828125 C7.14806152 57.10084473 6.8469043 55.9634082 6.53662109 54.79150391 C5.15853916 49.72131388 3.61790533 44.70559033 2.0625 39.6875 C-0.27469959 32.07564045 -2.58489662 24.45724497 -4.8125 16.8125 C-5.07168213 15.94141602 -5.33086426 15.07033203 -5.59790039 14.17285156 C-7.97304226 5.94511863 -7.97304226 5.94511863 -7.375 2.4375 C-4.35292605 0.42278403 -3.45773301 0.10030966 0 0 Z " fill="#122E3D" transform="translate(758.375,333.5625)"/>
<path d="M0 0 C6.0584609 5.324102 8.46864456 11.45122128 9.35107422 19.41772461 C9.46262838 22.03577674 9.47880007 24.62998128 9.4375 27.25 C9.42952393 28.16652344 9.42154785 29.08304687 9.41333008 30.02734375 C9.24210957 38.16501384 8.54731862 47.34824948 3.0625 53.8125 C-1.75878639 57.2430307 -4.89305594 58.56805551 -10.9375 57.8125 C-16.11903615 56.14386972 -19.05039309 54.45249325 -21.9375 49.8125 C-27.42594731 37.90035427 -27.8966702 22.50744468 -23.8515625 10.05078125 C-22.16342195 5.91700119 -20.16908808 2.93212553 -16.875 -0.0625 C-11.43040195 -2.14766521 -5.41239956 -2.18799131 0 0 Z " fill="#FBFBFC" transform="translate(303.9375,347.1875)"/>
<path d="M0 0 C19 0 19 0 25 4 C32.24275749 14.26057312 32.54355719 28.0315947 30.46484375 40.109375 C28.77700039 46.1966789 26.58432688 51.43863584 21 54.8125 C13.36295232 57.83549804 9.45266573 57 0 57 C0 38.19 0 19.38 0 0 Z " fill="#FAFBFB" transform="translate(629,347)"/>
<path d="M0 0 C3.15689734 1.60714774 5.19415756 2.97438234 7.375 5.75 C8.80762043 10.90743355 8.70282968 14.62037137 6.3125 19.3125 C3.16514082 22.97024175 0.87165262 24.72124323 -3.9375 25.4375 C-8.90536757 24.72780463 -12.7990188 21.79946493 -16 18 C-17.2179198 13.88373939 -17.47377742 10.18444356 -15.875 6.1875 C-11.05645013 0.56585848 -7.36802763 -1.29718796 0 0 Z " fill="#FCF9FD" transform="translate(323,439)"/>
<path d="M0 0 C12.86206897 0 12.86206897 0 17 3 C19.42166168 5.90599402 19.96330364 7.66361668 20.375 11.4375 C19.95647878 15.41345159 19.25188615 17.69723365 17 21 C11.30311357 25.27266482 7.88480602 24 0 24 C0 16.08 0 8.16 0 0 Z " fill="#FAF7FC" transform="translate(510,439)"/>
<path d="M0 0 C0.66 0 1.32 0 2 0 C2.23074219 0.88558594 2.46148437 1.77117187 2.69921875 2.68359375 C4.79727351 10.65288476 7.00950923 18.57120004 9.42456055 26.45092773 C10.31597476 29.40843655 11 31.89199206 11 35 C4.4 35 -2.2 35 -9 35 C-7.8756126 27.12928821 -7.8756126 27.12928821 -6.9140625 23.984375 C-6.70676514 23.29529053 -6.49946777 22.60620605 -6.28588867 21.89624023 C-6.06779541 21.18798096 -5.84970215 20.47972168 -5.625 19.75 C-5.17492881 18.25676708 -4.7257113 16.7632766 -4.27734375 15.26953125 C-3.95032471 14.18406006 -3.95032471 14.18406006 -3.61669922 13.07666016 C-2.32903212 8.74059667 -1.161275 4.37130347 0 0 Z " fill="#EFF1F2" transform="translate(451,350)"/>
<path d="M0 0 C1.2684375 -0.00773437 1.2684375 -0.00773437 2.5625 -0.015625 C5.17224437 0.26877022 6.79095359 0.84962237 9 2.25 C10.57170996 5.39341993 10.23175783 8.80771451 10 12.25 C9 15.25 9 15.25 7.25 16.41796875 C4.70554272 17.35888785 2.70907088 17.55011096 0 17.5625 C-0.845625 17.57925781 -1.69125 17.59601563 -2.5625 17.61328125 C-5.61030309 17.15904137 -6.91783891 16.53273624 -9 14.25 C-9.390625 11.33203125 -9.390625 11.33203125 -9.25 8.0625 C-9.21390625 6.97582031 -9.1778125 5.88914062 -9.140625 4.76953125 C-9.09421875 3.93808594 -9.0478125 3.10664063 -9 2.25 C-5.88610696 0.43356239 -3.59222291 -0.0219038 0 0 Z " fill="#193442" transform="translate(587,399.75)"/>
<path d="M0 0 C3.96 0 7.92 0 12 0 C16 4 16 4 16.390625 6.140625 C16.26041667 8.09375 16.13020833 10.046875 16 12 C14.02 12.99 14.02 12.99 12 14 C12.639375 15.093125 13.27875 16.18625 13.9375 17.3125 C15.26601325 19.5838291 16.15813297 21.47439892 17 24 C16.01 24 15.02 24 14 24 C12.82421875 22.50390625 12.82421875 22.50390625 11.6875 20.5625 C9.69358085 17.54730519 9.3578812 17.10128713 5.6875 16.0625 C4.800625 16.041875 3.91375 16.02125 3 16 C3 18.64 3 21.28 3 24 C2.01 24 1.02 24 0 24 C0 16.08 0 8.16 0 0 Z " fill="#AA61CB" transform="translate(577,439)"/>
<path d="M0 0 C3.96 0 7.92 0 12 0 C16 4 16 4 16.5 7.4375 C15.93237649 11.4818175 14.80548184 13.10684686 12 16 C13.65 18.31 15.3 20.62 17 23 C16.01 23.33 15.02 23.66 14 24 C13.70867187 23.50628906 13.41734375 23.01257813 13.1171875 22.50390625 C10.36289286 18.10060881 10.36289286 18.10060881 5.6875 16.0625 C4.800625 16.041875 3.91375 16.02125 3 16 C3 18.64 3 21.28 3 24 C2.01 24 1.02 24 0 24 C0 16.08 0 8.16 0 0 Z " fill="#AE6ACE" transform="translate(268,439)"/>
<path d="M0 0 C0.99 0 1.98 0 3 0 C4.67275302 3.62222211 6.33716251 7.2482166 8 10.875 C8.47695313 11.90753906 8.95390625 12.94007813 9.4453125 14.00390625 C9.89648438 14.99003906 10.34765625 15.97617187 10.8125 16.9921875 C11.44091797 18.35899658 11.44091797 18.35899658 12.08203125 19.75341797 C13 22 13 22 13 24 C11.0625 23.6875 11.0625 23.6875 9 23 C8.67 22.01 8.34 21.02 8 20 C1.07 19.505 1.07 19.505 -6 19 C-6.99 21.475 -6.99 21.475 -8 24 C-8.99 23.67 -9.98 23.34 -11 23 C-9.3578095 19.3525149 -7.71064184 15.70729935 -6.0625 12.0625 C-5.59392578 11.02158203 -5.12535156 9.98066406 -4.64257812 8.90820312 C-4.19462891 7.91884766 -3.74667969 6.92949219 -3.28515625 5.91015625 C-2.87144775 4.99371338 -2.45773926 4.07727051 -2.03149414 3.13305664 C-1 1 -1 1 0 0 Z " fill="#AE69CD" transform="translate(661,439)"/>
<path d="M0 0 C0.99 0 1.98 0 3 0 C4.42626953 1.45288086 4.42626953 1.45288086 5.8828125 3.46484375 C6.41003906 4.18220703 6.93726563 4.89957031 7.48046875 5.63867188 C8.02316406 6.39728516 8.56585938 7.15589844 9.125 7.9375 C10.2105804 9.42604174 11.29650017 10.91433607 12.3828125 12.40234375 C12.86121582 13.06741943 13.33961914 13.73249512 13.83251953 14.41772461 C14.90820333 15.95792345 14.90820333 15.95792345 16 17 C16.33 11.39 16.66 5.78 17 0 C17.99 0 18.98 0 20 0 C20 7.92 20 15.84 20 24 C15.74582711 22.93645678 15.37596612 22.70377932 12.984375 19.40234375 C12.19160156 18.32436523 12.19160156 18.32436523 11.3828125 17.22460938 C10.84398437 16.46986328 10.30515625 15.71511719 9.75 14.9375 C9.19570313 14.17888672 8.64140625 13.42027344 8.0703125 12.63867188 C6.70407514 10.76598445 5.35077833 8.88386852 4 7 C3.67 12.61 3.34 18.22 3 24 C2.01 24 1.02 24 0 24 C0 16.08 0 8.16 0 0 Z " fill="#AC65CC" transform="translate(353,439)"/>
<path d="M0 0 C4.88951493 1.22237873 6.31285197 3.50308106 9.125 7.375 C9.78822266 8.26058594 9.78822266 8.26058594 10.46484375 9.1640625 C12.38059572 11.73383251 14.22188032 14.33282049 16 17 C16.33 11.39 16.66 5.78 17 0 C17.99 0 18.98 0 20 0 C20 7.92 20 15.84 20 24 C19.01 24 18.02 24 17 24 C15.57373047 22.54711914 15.57373047 22.54711914 14.1171875 20.53515625 C13.58996094 19.81779297 13.06273437 19.10042969 12.51953125 18.36132812 C11.97683594 17.60271484 11.43414062 16.84410156 10.875 16.0625 C9.7894196 14.57395826 8.70349983 13.08566393 7.6171875 11.59765625 C7.13878418 10.93258057 6.66038086 10.26750488 6.16748047 9.58227539 C5.09179667 8.04207655 5.09179667 8.04207655 4 7 C3.67 12.61 3.34 18.22 3 24 C2.01 24 1.02 24 0 24 C0 16.08 0 8.16 0 0 Z " fill="#AB63CB" transform="translate(468,439)"/>
<path d="M0 0 C3.15689734 1.60714774 5.19415756 2.97438234 7.375 5.75 C8.80762043 10.90743355 8.70282968 14.62037137 6.3125 19.3125 C3.16514082 22.97024175 0.87165262 24.72124323 -3.9375 25.4375 C-8.90536757 24.72780463 -12.7990188 21.79946493 -16 18 C-17.2179198 13.88373939 -17.47377742 10.18444356 -15.875 6.1875 C-11.05645013 0.56585848 -7.36802763 -1.29718796 0 0 Z M-13 7 C-14.45147903 9.90295805 -14.37239025 11.77261779 -14 15 C-11.54134115 18.94875513 -10.01223197 20.66872408 -5.5625 22.125 C-1.17553227 21.97107131 0.69690252 20.83122641 4 18 C5.21260877 14.36217368 5.39544552 11.82264001 5 8 C2.46458828 4.46578972 0.69538558 3.22758074 -3.4375 1.875 C-8.34565097 2.04721582 -9.61507864 3.53448527 -13 7 Z " fill="#AC65CC" transform="translate(323,439)"/>
<path d="M0 0 C12.86206897 0 12.86206897 0 17 3 C19.42166168 5.90599402 19.96330364 7.66361668 20.375 11.4375 C19.95647878 15.41345159 19.25188615 17.69723365 17 21 C11.30311357 25.27266482 7.88480602 24 0 24 C0 16.08 0 8.16 0 0 Z M3 3 C3 9.27 3 15.54 3 22 C11.1887859 21.72283279 11.1887859 21.72283279 14.5 19.5 C16.73113913 15.78143478 17.42301782 12.32247297 17 8 C15.31366812 4.73022394 15.31366812 4.73022394 12 3 C9.03 3 6.06 3 3 3 Z " fill="#AC66CC" transform="translate(510,439)"/>
<path d="M0 0 C4.62 0 9.24 0 14 0 C14 0.99 14 1.98 14 3 C10.37 3 6.74 3 3 3 C3 5.64 3 8.28 3 11 C5.97 11 8.94 11 12 11 C12 11.66 12 12.32 12 13 C9.03 13 6.06 13 3 13 C3 15.97 3 18.94 3 22 C6.63 22 10.26 22 14 22 C14 22.66 14 23.32 14 24 C9.38 24 4.76 24 0 24 C0 16.08 0 8.16 0 0 Z " fill="#AA61CA" transform="translate(616,439)"/>
<path d="M0 0 C1.31291016 -0.03867187 1.31291016 -0.03867187 2.65234375 -0.078125 C5.4818869 0.30709643 6.31382925 1.05694757 8.0625 3.25 C5.0625 4.25 5.0625 4.25 1.6875 3.625 C-2.43545644 3.19848726 -3.74817616 3.71730165 -6.9375 6.25 C-8.55219184 9.47938367 -8.51829278 12.75856753 -7.9375 16.25 C-6.04100449 19.39658666 -6.04100449 19.39658666 -2.9375 21.25 C0.60449641 21.66673207 0.60449641 21.66673207 4.0625 21.25 C5.3825 21.25 6.7025 21.25 8.0625 21.25 C5.50954003 23.9190036 4.08076222 25.13428838 0.3125 25.5625 C-4.45453348 25.1041314 -7.41887565 22.94537635 -10.58203125 19.4140625 C-12.97518785 15.59328798 -12.69010743 11.59459741 -11.9375 7.25 C-9.08985803 1.98713576 -5.82247783 0.10259873 0 0 Z " fill="#AC66CC" transform="translate(706.9375,438.75)"/>
<path d="M0 0 C4.62 0 9.24 0 14 0 C14 0.66 14 1.32 14 2 C10.37 2 6.74 2 3 2 C3 4.97 3 7.94 3 11 C5.97 11 8.94 11 12 11 C12 11.66 12 12.32 12 13 C9.03 13 6.06 13 3 13 C3 15.97 3 18.94 3 22 C6.63 22 10.26 22 14 22 C14 22.66 14 23.32 14 24 C9.38 24 4.76 24 0 24 C0 16.08 0 8.16 0 0 Z " fill="#A65AC8" transform="translate(432,439)"/>
<path d="M0 0 C4.62 0 9.24 0 14 0 C14 0.66 14 1.32 14 2 C10.37 2 6.74 2 3 2 C3 4.97 3 7.94 3 11 C5.97 11 8.94 11 12 11 C12 11.66 12 12.32 12 13 C9.03 13 6.06 13 3 13 C3 16.63 3 20.26 3 24 C2.01 24 1.02 24 0 24 C0 16.08 0 8.16 0 0 Z " fill="#A558C8" transform="translate(232,439)"/>
<path d="M0 0 C6.8359375 -0.29296875 6.8359375 -0.29296875 9 0 C11 3 11 3 10.75 5.5625 C10 8 10 8 8 10 C5.31160615 10.26991906 2.70858064 10.08737357 0 10 C0 6.7 0 3.4 0 0 Z " fill="#FBF9FC" transform="translate(580,442)"/>
<path d="M0 0 C5.28 0 10.56 0 16 0 C16 0.66 16 1.32 16 2 C14.02 2 12.04 2 10 2 C10 9.26 10 16.52 10 24 C9.01 24 8.02 24 7 24 C7 16.74 7 9.48 7 2 C4.69 2 2.38 2 0 2 C0 1.34 0 0.68 0 0 Z " fill="#A75BC9" transform="translate(394,439)"/>
<path d="M0 0 C6.0546875 -0.1953125 6.0546875 -0.1953125 8 0 C10 2 10 2 10.125 5.125 C10.08375 6.07375 10.0425 7.0225 10 8 C6.5980513 10.09350689 3.94727588 10.17942163 0 10 C0 6.7 0 3.4 0 0 Z " fill="#FEFDFE" transform="translate(271,442)"/>
<path d="M0 0 C5.28 0 10.56 0 16 0 C16 0.66 16 1.32 16 2 C13.69 2 11.38 2 9 2 C9 9.26 9 16.52 9 24 C8.34 24 7.68 24 7 24 C7 16.74 7 9.48 7 2 C4.69 2 2.38 2 0 2 C0 1.34 0 0.68 0 0 Z " fill="#A558C8" transform="translate(736,439)"/>
<path d="M0 0 C5 7.5 5 7.5 5 12 C1.7 12 -1.6 12 -5 12 C-2.25 3.375 -2.25 3.375 0 0 Z " fill="#FAF6FB" transform="translate(662,443)"/>
<path d="M0 0 C1.60725635 3.21451269 1.05748185 6.43612536 1 10 C0.360625 10.28875 -0.27875 10.5775 -0.9375 10.875 C-3.15206079 11.82823451 -3.15206079 11.82823451 -4 14 C-3.48579339 11.42896697 -2.96897576 8.86659575 -2.375 6.3125 C-1.76572985 3.98135781 -1.76572985 3.98135781 -3 2 C-5.12576782 1.53348793 -5.12576782 1.53348793 -7.5625 1.375 C-8.38878906 1.30023438 -9.21507812 1.22546875 -10.06640625 1.1484375 C-10.70449219 1.09945313 -11.34257813 1.05046875 -12 1 C-12 0.67 -12 0.34 -12 0 C-3.05084746 -1.34237288 -3.05084746 -1.34237288 0 0 Z " fill="#AF6CCE" transform="translate(592,441)"/>
<path d="M0 0 C0.33 0 0.66 0 1 0 C1 3.3 1 6.6 1 10 C0.01 9.34 -0.98 8.68 -2 8 C-1.125 1.125 -1.125 1.125 0 0 Z " fill="#D7DCDE" transform="translate(230,352)"/>
</svg>
